<svg width="230" height="100" viewBox="0 0 230 100" fill="none" xmlns="http://www.w3.org/2000/svg">
<g clip-path="url(#clip0_267_32)">
<rect width="230" height="100" rx="50" fill="white"/>
<g filter="url(#filter0_d_267_32)">
<rect width="230" height="100" rx="50" fill="url(#paint0_linear_267_32)"/>
</g>
<g filter="url(#filter1_d_267_32)">
<circle cx="47" cy="50" r="47" fill="#F3F3F3"/>
</g>
<path d="M119.688 55H116.321V44.0909H119.837C120.895 44.0909 121.8 44.3093 122.553 44.7461C123.306 45.1793 123.883 45.8026 124.284 46.6158C124.686 47.4254 124.886 48.3949 124.886 49.5241C124.886 50.6605 124.684 51.6388 124.279 52.4592C123.874 53.2759 123.285 53.9045 122.511 54.3448C121.737 54.7816 120.795 55 119.688 55ZM117.642 53.8281H119.602C120.504 53.8281 121.252 53.6541 121.845 53.3061C122.438 52.9581 122.88 52.4627 123.171 51.82C123.462 51.1772 123.608 50.4119 123.608 49.5241C123.608 48.6435 123.464 47.8853 123.176 47.2496C122.889 46.6104 122.459 46.1204 121.887 45.7795C121.316 45.435 120.604 45.2628 119.751 45.2628H117.642V53.8281ZM129.339 55.1918C128.821 55.1918 128.35 55.0941 127.928 54.8988C127.505 54.6999 127.17 54.4141 126.921 54.0412C126.673 53.6648 126.548 53.2102 126.548 52.6776C126.548 52.2088 126.641 51.8288 126.825 51.5376C127.01 51.2429 127.257 51.0121 127.566 50.8452C127.875 50.6783 128.216 50.554 128.588 50.4723C128.965 50.3871 129.343 50.3196 129.723 50.2699C130.22 50.206 130.623 50.158 130.932 50.1261C131.245 50.0906 131.472 50.032 131.614 49.9503C131.76 49.8686 131.832 49.7266 131.832 49.5241V49.4815C131.832 48.956 131.689 48.5476 131.401 48.2564C131.117 47.9652 130.685 47.8196 130.107 47.8196C129.506 47.8196 129.036 47.951 128.695 48.2138C128.354 48.4766 128.114 48.7571 127.976 49.0554L126.783 48.6293C126.996 48.1321 127.28 47.745 127.635 47.468C127.994 47.1875 128.384 46.9922 128.807 46.8821C129.233 46.7685 129.652 46.7116 130.064 46.7116C130.327 46.7116 130.629 46.7436 130.969 46.8075C131.314 46.8679 131.646 46.994 131.966 47.1857C132.289 47.3775 132.557 47.6669 132.77 48.054C132.983 48.4411 133.089 48.9595 133.089 49.6094V55H131.832V53.892H131.768C131.683 54.0696 131.541 54.2596 131.342 54.462C131.143 54.6644 130.879 54.8366 130.549 54.9787C130.218 55.1207 129.815 55.1918 129.339 55.1918ZM129.531 54.0625C130.028 54.0625 130.447 53.9648 130.788 53.7695C131.133 53.5742 131.392 53.3221 131.566 53.0131C131.744 52.7042 131.832 52.3793 131.832 52.0384V50.8878C131.779 50.9517 131.662 51.0103 131.481 51.0636C131.303 51.1133 131.097 51.1577 130.863 51.1967C130.632 51.2322 130.407 51.2642 130.186 51.2926C129.97 51.3175 129.794 51.3388 129.659 51.3565C129.332 51.3991 129.027 51.4684 128.743 51.5643C128.462 51.6566 128.235 51.7969 128.061 51.9851C127.891 52.1697 127.805 52.4219 127.805 52.7415C127.805 53.1783 127.967 53.5085 128.29 53.7322C128.617 53.9524 129.031 54.0625 129.531 54.0625ZM135.384 55V46.8182H136.598V48.054H136.684C136.833 47.6491 137.103 47.3207 137.493 47.0685C137.884 46.8164 138.324 46.6903 138.814 46.6903C138.907 46.6903 139.022 46.6921 139.161 46.6957C139.299 46.6992 139.404 46.7045 139.475 46.7116V47.9901C139.432 47.9794 139.335 47.9634 139.182 47.9421C139.033 47.9173 138.875 47.9048 138.708 47.9048C138.31 47.9048 137.955 47.9883 137.642 48.1552C137.334 48.3185 137.089 48.5458 136.907 48.837C136.73 49.1246 136.641 49.4531 136.641 49.8224V55H135.384ZM142.137 52.017L142.116 50.4616H142.371L145.951 46.8182H147.506L143.692 50.6747H143.586L142.137 52.017ZM140.965 55V44.0909H142.222V55H140.965ZM146.164 55L142.968 50.9517L143.863 50.0781L147.762 55H146.164Z" fill="#F6E8E8"/>
<path fill-rule="evenodd" clip-rule="evenodd" d="M31.9977 26.4282C31.9977 25.6394 31.3583 25 30.5695 25C29.7807 25 29.1412 25.6394 29.1412 26.4282V28.5706H26.9989C26.21 28.5706 25.5706 29.21 25.5706 29.9989C25.5706 30.7876 26.21 31.4271 26.9989 31.4271H29.1412V33.5695C29.1412 34.3583 29.7807 34.9977 30.5695 34.9977C31.3583 34.9977 31.9977 34.3583 31.9977 33.5695V31.4271H34.1401C34.9289 31.4271 35.5683 30.7876 35.5683 29.9989C35.5683 29.21 34.9289 28.5706 34.1401 28.5706H31.9977V26.4282ZM42.7095 37.1401C42.7095 36.3513 42.0701 35.7118 41.2813 35.7118C40.4925 35.7118 39.853 36.3513 39.853 37.1401V39.2824H37.7107C36.9219 39.2824 36.2824 39.9219 36.2824 40.7107C36.2824 41.4995 36.9219 42.1389 37.7107 42.1389H39.853V44.2813C39.853 45.0701 40.4925 45.7095 41.2813 45.7095C42.0701 45.7095 42.7095 45.0701 42.7095 44.2813V42.1389H44.8519C45.6407 42.1389 46.2801 41.4995 46.2801 40.7107C46.2801 39.9219 45.6407 39.2824 44.8519 39.2824H42.7095V37.1401ZM28.4271 47.8519C28.4271 47.0631 27.7876 46.4237 26.9989 46.4237C26.21 46.4237 25.5706 47.0631 25.5706 47.8519V49.9943H23.4282C22.6394 49.9943 22 50.6337 22 51.4225C22 52.2113 22.6394 52.8507 23.4282 52.8507H25.5706V54.9931C25.5706 55.7819 26.21 56.4213 26.9989 56.4213C27.7876 56.4213 28.4271 55.7819 28.4271 54.9931V52.8507H30.5695C31.3583 52.8507 31.9977 52.2113 31.9977 51.4225C31.9977 50.6337 31.3583 49.9943 30.5695 49.9943H28.4271V47.8519ZM52.1505 28.1488L51.0869 28.0051C50.3248 27.9197 49.8755 28.8046 50.3127 29.4346C50.8153 30.1589 51.2784 30.9127 51.6987 31.693C53.4885 35.0151 54.5041 38.8159 54.5041 42.8539C54.5041 54.5362 46.0034 64.2332 34.8502 66.0967C33.9879 66.2406 33.1042 66.3377 32.2123 66.3856C31.4466 66.4263 31.024 67.3243 31.5593 67.8731C31.8032 68.1234 32.0526 68.368 32.3072 68.6072L32.5649 68.8453L33.4933 69.6487L34.1646 70.1797L34.597 70.5014L35.2646 70.9688L35.8926 71.3787C36.3245 71.6504 36.7658 71.9089 37.2165 72.1532L38.1569 72.6363L39.0873 73.0629L40.1687 73.4989L41.0375 73.8053C41.5157 73.9631 42.0008 74.1063 42.4903 74.2334C42.8618 74.3298 43.2369 74.4176 43.6167 74.4965C44.0662 74.5897 44.5204 74.6704 44.9785 74.7379L46.1103 74.8761L47.0634 74.95C47.517 74.9761 47.974 74.9893 48.4341 74.9893C61.4492 74.9893 72 64.4385 72 51.4234C72 50.5315 71.9504 49.6512 71.854 48.785L71.7226 47.7951C71.5994 46.998 71.4362 46.2141 71.2355 45.4469C70.9934 44.5209 70.6967 43.6172 70.3493 42.7417L69.9458 41.7866L69.6702 41.1943L69.4056 40.6631C68.8386 39.5601 68.1869 38.5075 67.4582 37.5123L66.9119 36.7957L66.2017 35.9416L65.6175 35.2963L65.1905 34.8532L64.6171 34.2924L63.824 33.5761L62.6782 32.648L61.8063 32.0163L60.7633 31.336L59.615 30.6736L58.4463 30.0838L58.0411 29.8981L57.188 29.5369L56.199 29.1666L55.2983 28.8728L54.1382 28.5524L53.1929 28.3381L52.1505 28.1488ZM58.7888 43.5681C58.7888 39.9105 58.0639 36.4199 56.7508 33.234C63.6416 36.3901 68.4294 43.3481 68.4294 51.4234C68.4294 62.4665 59.4772 71.4187 48.4341 71.4187C45.3392 71.4187 42.4096 70.7167 39.7944 69.462C45.0016 67.8263 49.5324 64.6631 52.8616 60.4976C53.3487 61.1646 54.1365 61.5977 55.0256 61.5977C56.5046 61.5977 57.7037 60.3987 57.7037 58.9198C57.7037 57.6446 56.8122 56.5776 55.6186 56.3077C55.8402 55.8917 56.0513 55.4693 56.2515 55.0407C56.9334 55.4632 57.7376 55.707 58.5988 55.707C61.0636 55.707 63.0621 53.7088 63.0621 51.2438C63.0621 48.7795 61.0647 46.7816 58.6006 46.7805C58.7248 45.727 58.7888 44.655 58.7888 43.5681Z" fill="#333333"/>
</g>
<defs>
<filter id="filter0_d_267_32" x="-8" y="-10" width="260" height="130" filterUnits="userSpaceOnUse" color-interpolation-filters="sRGB">
<feFlood flood-opacity="0" result="BackgroundImageFix"/>
<feColorMatrix in="SourceAlpha" type="matrix" values="0 0 0 0 0 0 0 0 0 0 0 0 0 0 0 0 0 0 127 0" result="hardAlpha"/>
<feOffset dx="7" dy="5"/>
<feGaussianBlur stdDeviation="7.5"/>
<feColorMatrix type="matrix" values="0 0 0 0 0.2 0 0 0 0 0.2 0 0 0 0 0.2 0 0 0 0.25 0"/>
<feBlend mode="normal" in2="BackgroundImageFix" result="effect1_dropShadow_267_32"/>
<feBlend mode="normal" in="SourceGraphic" in2="effect1_dropShadow_267_32" result="shape"/>
</filter>
<filter id="filter1_d_267_32" x="-11" y="-8" width="124" height="124" filterUnits="userSpaceOnUse" color-interpolation-filters="sRGB">
<feFlood flood-opacity="0" result="BackgroundImageFix"/>
<feColorMatrix in="SourceAlpha" type="matrix" values="0 0 0 0 0 0 0 0 0 0 0 0 0 0 0 0 0 0 127 0" result="hardAlpha"/>
<feOffset dx="4" dy="4"/>
<feGaussianBlur stdDeviation="7.5"/>
<feColorMatrix type="matrix" values="0 0 0 0 0.952941 0 0 0 0 0.952941 0 0 0 0 0.952941 0 0 0 0.25 0"/>
<feBlend mode="normal" in2="BackgroundImageFix" result="effect1_dropShadow_267_32"/>
<feBlend mode="normal" in="SourceGraphic" in2="effect1_dropShadow_267_32" result="shape"/>
</filter>
<linearGradient id="paint0_linear_267_32" x1="-51" y1="60" x2="274" y2="62" gradientUnits="userSpaceOnUse">
<stop/>
<stop offset="1" stop-color="#807E7F"/>
</linearGradient>
<clipPath id="clip0_267_32">
<rect width="230" height="100" rx="50" fill="white"/>
</clipPath>
</defs>
</svg>
