<svg width="230" height="100" viewBox="0 0 230 100" fill="none" xmlns="http://www.w3.org/2000/svg">
<g clip-path="url(#clip0_267_31)">
<rect width="230" height="100" rx="50" fill="white"/>
<g filter="url(#filter0_d_267_31)">
<rect width="230" height="100" rx="50" fill="url(#paint0_linear_267_31)"/>
</g>
<g filter="url(#filter1_d_267_31)">
<circle cx="183" cy="51" r="47" fill="#333333"/>
</g>
<path d="M80.076 56V45.0909H82.0522V54.3434H86.8569V56H80.076ZM88.4869 56V47.8182H90.4151V56H88.4869ZM89.4563 46.657C89.1509 46.657 88.8881 46.5558 88.668 46.3533C88.4478 46.1474 88.3377 45.9006 88.3377 45.6129C88.3377 45.3217 88.4478 45.0749 88.668 44.8725C88.8881 44.6665 89.1509 44.5636 89.4563 44.5636C89.7653 44.5636 90.0281 44.6665 90.2447 44.8725C90.4648 45.0749 90.5749 45.3217 90.5749 45.6129C90.5749 45.9006 90.4648 46.1474 90.2447 46.3533C90.0281 46.5558 89.7653 46.657 89.4563 46.657ZM95.9562 59.2386C95.2638 59.2386 94.6689 59.1445 94.1718 58.9563C93.6746 58.7717 93.2751 58.5231 92.9733 58.2106C92.6714 57.8981 92.4619 57.5518 92.3447 57.1719L94.0812 56.7511C94.1594 56.9109 94.273 57.0689 94.4221 57.2251C94.5713 57.3849 94.7719 57.5163 95.0241 57.6193C95.2797 57.7259 95.6011 57.7791 95.9882 57.7791C96.5351 57.7791 96.9878 57.646 97.3465 57.3796C97.7052 57.1168 97.8845 56.6836 97.8845 56.0799V54.5298H97.7886C97.6892 54.7287 97.5436 54.9329 97.3518 55.1424C97.1636 55.3519 96.9133 55.5277 96.6008 55.6697C96.2918 55.8118 95.903 55.8828 95.4342 55.8828C94.8057 55.8828 94.2357 55.7354 93.7243 55.4407C93.2165 55.1424 92.8117 54.6985 92.5099 54.109C92.2116 53.516 92.0624 52.7738 92.0624 51.8825C92.0624 50.984 92.2116 50.2259 92.5099 49.608C92.8117 48.9865 93.2183 48.516 93.7297 48.1964C94.241 47.8732 94.811 47.7116 95.4395 47.7116C95.9189 47.7116 96.3131 47.7933 96.6221 47.9567C96.9346 48.1165 97.1831 48.31 97.3678 48.5373C97.5525 48.761 97.6927 48.9723 97.7886 49.1712H97.8952V47.8182H99.7968V56.1332C99.7968 56.8327 99.6299 57.4116 99.2961 57.8697C98.9623 58.3278 98.5059 58.6705 97.9271 58.8977C97.3483 59.125 96.6913 59.2386 95.9562 59.2386ZM95.9722 54.37C96.3806 54.37 96.7286 54.2706 97.0162 54.0717C97.3039 53.8729 97.5223 53.587 97.6714 53.2141C97.8206 52.8413 97.8952 52.3938 97.8952 51.8718C97.8952 51.3569 97.8206 50.9059 97.6714 50.5188C97.5258 50.1317 97.3092 49.8317 97.0216 49.6186C96.7375 49.402 96.3877 49.2937 95.9722 49.2937C95.5425 49.2937 95.1839 49.4055 94.8962 49.6293C94.6086 49.853 94.392 50.1602 94.2464 50.5508C94.1008 50.9379 94.028 51.3782 94.028 51.8718C94.028 52.3725 94.1008 52.8111 94.2464 53.1875C94.3955 53.5604 94.6139 53.8516 94.9015 54.0611C95.1927 54.267 95.5496 54.37 95.9722 54.37ZM103.701 51.206V56H101.773V45.0909H103.659V49.2085H103.755C103.946 48.7468 104.243 48.3828 104.644 48.1165C105.049 47.8466 105.564 47.7116 106.189 47.7116C106.757 47.7116 107.252 47.8306 107.675 48.0685C108.098 48.3065 108.424 48.6545 108.655 49.1126C108.889 49.5707 109.007 50.13 109.007 50.7905V56H107.078V51.0888C107.078 50.5384 106.936 50.1104 106.652 49.805C106.372 49.4961 105.978 49.3416 105.47 49.3416C105.129 49.3416 104.823 49.4162 104.554 49.5653C104.287 49.7109 104.078 49.9222 103.925 50.1992C103.776 50.4762 103.701 50.8118 103.701 51.206ZM115.058 47.8182V49.3097H110.354V47.8182H115.058ZM111.516 45.858H113.444V53.5391C113.444 53.7983 113.483 53.9972 113.561 54.1357C113.643 54.2706 113.749 54.3629 113.881 54.4126C114.012 54.4624 114.158 54.4872 114.317 54.4872C114.438 54.4872 114.548 54.4783 114.648 54.4606C114.751 54.4428 114.829 54.4268 114.882 54.4126L115.207 55.9201C115.104 55.9556 114.957 55.9947 114.765 56.0373C114.577 56.0799 114.346 56.1048 114.072 56.1119C113.589 56.1261 113.154 56.0533 112.767 55.8935C112.38 55.7301 112.073 55.478 111.846 55.1371C111.622 54.7962 111.512 54.37 111.516 53.8587V45.858Z" fill="#171616"/>
<path d="M183 62.1111C189.136 62.1111 194.111 57.1365 194.111 51C194.111 44.8635 189.136 39.8889 183 39.8889C176.863 39.8889 171.889 44.8635 171.889 51C171.889 57.1365 176.863 62.1111 183 62.1111Z" stroke="#FEFEFE" stroke-width="2" stroke-linecap="round" stroke-linejoin="round"/>
<path d="M158 51H160.778M183 26V28.7778M205.222 51H208M183 73.2222V76M165.222 33.2222L167.167 35.1667M200.778 33.2222L198.833 35.1667M198.833 66.8333L200.778 68.7778M167.167 66.8333L165.222 68.7778" stroke="#FEFEFE" stroke-width="2" stroke-linecap="round" stroke-linejoin="round"/>
</g>
<defs>
<filter id="filter0_d_267_31" x="-8" y="-10" width="260" height="130" filterUnits="userSpaceOnUse" color-interpolation-filters="sRGB">
<feFlood flood-opacity="0" result="BackgroundImageFix"/>
<feColorMatrix in="SourceAlpha" type="matrix" values="0 0 0 0 0 0 0 0 0 0 0 0 0 0 0 0 0 0 127 0" result="hardAlpha"/>
<feOffset dx="7" dy="5"/>
<feGaussianBlur stdDeviation="7.5"/>
<feColorMatrix type="matrix" values="0 0 0 0 0.627451 0 0 0 0 0.619608 0 0 0 0 0.627451 0 0 0 1 0"/>
<feBlend mode="normal" in2="BackgroundImageFix" result="effect1_dropShadow_267_31"/>
<feBlend mode="normal" in="SourceGraphic" in2="effect1_dropShadow_267_31" result="shape"/>
</filter>
<filter id="filter1_d_267_31" x="125" y="-7" width="124" height="124" filterUnits="userSpaceOnUse" color-interpolation-filters="sRGB">
<feFlood flood-opacity="0" result="BackgroundImageFix"/>
<feColorMatrix in="SourceAlpha" type="matrix" values="0 0 0 0 0 0 0 0 0 0 0 0 0 0 0 0 0 0 127 0" result="hardAlpha"/>
<feOffset dx="4" dy="4"/>
<feGaussianBlur stdDeviation="7.5"/>
<feColorMatrix type="matrix" values="0 0 0 0 0.0958333 0 0 0 0 0.0866493 0 0 0 0 0.0866493 0 0 0 0.25 0"/>
<feBlend mode="normal" in2="BackgroundImageFix" result="effect1_dropShadow_267_31"/>
<feBlend mode="normal" in="SourceGraphic" in2="effect1_dropShadow_267_31" result="shape"/>
</filter>
<linearGradient id="paint0_linear_267_31" x1="-41" y1="50" x2="265" y2="50" gradientUnits="userSpaceOnUse">
<stop stop-color="#FDF3FF"/>
<stop offset="1" stop-color="white" stop-opacity="0.6"/>
</linearGradient>
<clipPath id="clip0_267_31">
<rect width="230" height="100" rx="50" fill="white"/>
</clipPath>
</defs>
</svg>
